<svg width="67" height="67" viewBox="0 0 67 67" fill="none" xmlns="http://www.w3.org/2000/svg">
<path d="M43.9164 0C43.3782 0 42.9198 0.382354 42.8215 0.911654L42.3286 3.53757C42.2013 4.21873 41.662 4.72727 40.9808 4.86797C40.3465 4.99974 39.7213 5.16434 39.1139 5.36087C38.455 5.57527 37.7373 5.40589 37.2862 4.88105L35.5545 2.8571C35.2039 2.4484 34.6123 2.35132 34.1456 2.62155L32.8544 3.36745C32.3899 3.63545 32.1785 4.19961 32.3572 4.70658L33.2426 7.22344C33.4727 7.87557 33.2613 8.58445 32.7454 9.04674C32.2652 9.47778 31.8111 9.93188 31.3801 10.412C30.9178 10.9279 30.2089 11.1437 29.5568 10.9137L27.0355 10.0238C26.5286 9.84516 25.9688 10.0543 25.7008 10.5211L24.9505 11.8166C24.6825 12.2811 24.784 12.8749 25.1904 13.2255L25.4085 13.4131C28.0506 13.4578 30.3108 15.3476 30.7999 17.9539L30.9352 18.6649L31.4019 18.1153C32.427 16.9227 33.8622 16.2742 35.3451 16.196C37.3462 13.1699 40.7695 11.1667 44.6667 11.1667C50.8329 11.1667 55.8333 16.1671 55.8333 22.3333C55.8333 26.2305 53.8301 29.6539 50.804 31.6505C50.7258 33.1335 50.0773 34.5709 48.8847 35.5938L48.3351 36.0605L49.0461 36.1957C51.6524 36.6848 53.5422 38.9451 53.5869 41.5871L53.7745 41.8052C54.1251 42.2139 54.7166 42.3154 55.1834 42.0451L56.4789 41.2949C56.9434 41.0269 57.1548 40.4671 56.9762 39.9601L56.0863 37.4389C55.8563 36.7867 56.0721 36.0779 56.588 35.6156C57.0681 35.1845 57.5222 34.7304 57.9533 34.2503C58.4156 33.7344 59.1244 33.523 59.7766 33.753L62.2934 34.6385C62.8004 34.8171 63.3646 34.608 63.6326 34.1412L64.3785 32.8457C64.6465 32.3812 64.5494 31.7918 64.1429 31.4411L62.1189 29.7051C61.5941 29.2539 61.4247 28.5362 61.6391 27.8774C61.8357 27.2699 62.0003 26.6491 62.132 26.0148C62.2727 25.3359 62.7813 24.7965 63.4624 24.667L66.0883 24.1697C66.6176 24.0782 67 23.6218 67 23.0836V21.5831C67 21.0448 66.6176 20.5865 66.0883 20.4882L63.4624 19.9953C62.7813 19.868 62.2727 19.3286 62.132 18.6475C62.0003 18.0132 61.8357 17.388 61.6391 16.7805C61.4247 16.1217 61.5941 15.404 62.1189 14.9529L64.1429 13.2212C64.5516 12.8705 64.6487 12.279 64.3785 11.8122L63.6326 10.5211C63.3646 10.0566 62.8004 9.84516 62.2934 10.0238L59.7766 10.9093C59.1244 11.1393 58.4156 10.9279 57.9533 10.412C57.5222 9.93188 57.0681 9.47778 56.588 9.04674C56.0721 8.58445 55.8563 7.87557 56.0863 7.22344L56.9762 4.70221C57.1548 4.19525 56.9457 3.63545 56.4789 3.36745L55.1834 2.61719C54.7189 2.34919 54.1251 2.45063 53.7745 2.8571L52.0428 4.88105C51.5916 5.40589 50.8739 5.57527 50.2151 5.36087C49.6076 5.16434 48.9824 4.99974 48.3482 4.86797C47.6692 4.72727 47.1299 4.21437 47.0003 3.5332L46.5074 0.907292C46.4136 0.380225 45.9552 0 45.4169 0H43.9164ZM23.8164 17.8667C23.2782 17.8667 22.8198 18.2469 22.7215 18.774L22.3072 20.9811C22.1352 21.899 21.4039 22.5754 20.4882 22.7608C19.7266 22.9149 18.9786 23.1107 18.2505 23.3497C17.3661 23.64 16.3956 23.4229 15.7904 22.7172L14.3378 21.0204C13.9872 20.6139 13.3934 20.5168 12.9289 20.7848L11.6378 21.5307C11.171 21.7987 10.9618 22.3629 11.1405 22.8699L11.8908 24.9941C12.199 25.8741 11.9049 26.8203 11.2103 27.4412C10.6363 27.9549 10.0903 28.4986 9.57891 29.0726C8.95804 29.7672 8.01177 30.0613 7.13184 29.7531L5.00319 29.0072C4.49622 28.8285 3.93642 29.0399 3.66842 29.5044L2.91816 30.7956C2.64793 31.2623 2.74937 31.8539 3.15807 32.2045L4.85488 33.657C5.56062 34.2623 5.7777 35.2328 5.48737 36.1172C5.2484 36.8453 5.0526 37.5933 4.8985 38.3549C4.71314 39.2705 4.03672 40.0019 3.11882 40.1738L0.911654 40.5882C0.382354 40.6865 0 41.1448 0 41.6831V43.1836C0 43.7218 0.380225 44.1802 0.907292 44.2785L3.11445 44.6928C4.03235 44.8648 4.70877 45.5961 4.89414 46.5118C5.04824 47.2756 5.24404 48.0214 5.48301 48.7495C5.77334 49.6339 5.55625 50.6044 4.85052 51.2096L3.15371 52.6622C2.74724 53.0128 2.65016 53.6066 2.91816 54.0711L3.66406 55.3622C3.93206 55.829 4.49622 56.0382 5.00319 55.8595L7.12747 55.1092C8.00741 54.801 8.95368 55.0951 9.57454 55.7897C10.0882 56.3637 10.632 56.9097 11.2059 57.4211C11.9005 58.042 12.1946 58.9882 11.8864 59.8682L11.1405 61.9968C10.9618 62.5038 11.1732 63.0636 11.6378 63.3316L12.9289 64.0818C13.3957 64.3521 13.9872 64.2506 14.3378 63.8419L15.7904 62.1451C16.3956 61.4394 17.3661 61.2223 18.2505 61.5126C18.9786 61.7516 19.7266 61.9474 20.4882 62.1015C21.4039 62.2869 22.1352 62.9633 22.3072 63.8812L22.7215 66.0883C22.8198 66.6176 23.2782 67 23.8164 67H25.3169C25.8552 67 26.3136 66.6175 26.4074 66.0927L26.8218 63.8855C26.9938 62.9676 27.7251 62.2912 28.6408 62.1059C29.4046 61.9518 30.1504 61.756 30.8785 61.517C31.7629 61.2267 32.7334 61.4437 33.3386 62.1495L34.7911 63.8463C35.1418 64.2528 35.7312 64.3542 36.1957 64.0862L37.4912 63.3359C37.958 63.0679 38.1671 62.5081 37.9885 62.0012L37.2426 59.8725C36.9344 58.9926 37.2285 58.0463 37.923 57.4255C38.497 56.9118 39.043 56.368 39.5544 55.7941C40.1753 55.0995 41.1238 54.8054 42.0015 55.1136L44.1301 55.8595C44.6371 56.0382 45.1969 55.8268 45.4649 55.3622L46.2152 54.0711C46.4854 53.6043 46.384 53.0128 45.9753 52.6622L44.2785 51.2096C43.5727 50.6044 43.3556 49.6339 43.646 48.7495C43.8849 48.0214 44.0807 47.2734 44.2348 46.5118C44.4202 45.5961 45.0966 44.8648 46.0145 44.6928L48.2217 44.2785C48.751 44.1802 49.1333 43.7218 49.1333 43.1836V41.6831C49.1333 41.1448 48.7509 40.6886 48.226 40.5926L46.0189 40.1782C45.101 40.0062 44.4246 39.2705 44.2392 38.3549C44.0851 37.5933 43.8893 36.8453 43.6503 36.1172C43.36 35.2328 43.5771 34.2666 44.2828 33.6614L45.9796 32.2089C46.3861 31.8582 46.4875 31.2645 46.2195 30.7999L45.4693 29.5044C45.2013 29.0377 44.6415 28.8285 44.1345 29.0072L42.0059 29.7574C41.1259 30.0656 40.1797 29.7715 39.5588 29.077C39.0451 28.503 38.5014 27.957 37.9274 27.4456C37.2328 26.8247 36.9387 25.8784 37.2469 24.9985L37.9928 22.8699C38.1715 22.3629 37.9601 21.8031 37.4956 21.5351L36.2044 20.7848C35.7377 20.5146 35.1461 20.616 34.7955 21.0247L33.343 22.7215C32.7377 23.4273 31.7672 23.6444 30.8828 23.354C30.1547 23.1151 29.4067 22.9193 28.6451 22.7652C27.7295 22.5798 26.9981 21.9034 26.8262 20.9855L26.4118 18.7783C26.3135 18.249 25.8552 17.8667 25.3169 17.8667H23.8164ZM44.6667 20.1C44.0744 20.1 43.5063 20.3353 43.0875 20.7541C42.6686 21.173 42.4333 21.741 42.4333 22.3333C42.4333 22.9257 42.6686 23.4937 43.0875 23.9125C43.5063 24.3314 44.0744 24.5667 44.6667 24.5667C45.259 24.5667 45.827 24.3314 46.2459 23.9125C46.6647 23.4937 46.9 22.9257 46.9 22.3333C46.9 21.741 46.6647 21.173 46.2459 20.7541C45.827 20.3353 45.259 20.1 44.6667 20.1ZM24.5667 29.0333C31.9679 29.0333 37.9667 35.0321 37.9667 42.4333C37.9667 49.8346 31.9679 55.8333 24.5667 55.8333C17.1654 55.8333 11.1667 49.8346 11.1667 42.4333C11.1667 35.0321 17.1654 29.0333 24.5667 29.0333ZM24.5667 37.9667C22.0988 37.9667 20.1 39.9655 20.1 42.4333C20.1 44.9012 22.0988 46.9 24.5667 46.9C27.0345 46.9 29.0333 44.9012 29.0333 42.4333C29.0333 39.9655 27.0345 37.9667 24.5667 37.9667Z" fill="white"/>
</svg>
